<svg width="24" height="24" viewBox="0 0 24 24" fill="none" xmlns="http://www.w3.org/2000/svg">
<path d="M9.172 16.2421L12 13.4141L14.828 16.2421L16.242 14.8281L13.414 12.0001L16.242 9.17206L14.828 7.75806L12 10.5861L9.172 7.75806L7.758 9.17206L10.586 12.0001L7.758 14.8281L9.172 16.2421Z" fill="#292929"/>
<path d="M12 22C17.514 22 22 17.514 22 12C22 6.486 17.514 2 12 2C6.486 2 2 6.486 2 12C2 17.514 6.486 22 12 22ZM12 4C16.411 4 20 7.589 20 12C20 16.411 16.411 20 12 20C7.589 20 4 16.411 4 12C4 7.589 7.589 4 12 4Z" fill="#292929"/>
</svg>
