<svg width="211" height="212" viewBox="0 0 211 212" fill="none" xmlns="http://www.w3.org/2000/svg">
<path d="M64.759 0.243652H58.937V6.06564H64.759V0.243652Z" fill="black"/>
<path d="M93.8632 0.243652H88.0413V6.06564H93.8632V0.243652Z" fill="black"/>
<path d="M134.609 0.243652H128.787V6.06564H134.609V0.243652Z" fill="black"/>
<path d="M82.2192 11.8848V6.06277H76.4001V0.243652H70.5781V6.06277V11.8848V17.7067H76.4001V11.8848H82.2192Z" fill="black"/>
<path d="M140.431 6.06274H134.609V11.8847H140.431V6.06274Z" fill="black"/>
<path d="M152.072 17.7067V23.5258H157.891V17.7067V11.8847V6.06274H152.072V11.8847V17.7067Z" fill="black"/>
<path d="M58.937 17.7067V11.8848H53.1179V17.7067V23.5259H58.937V17.7067Z" fill="black"/>
<path d="M152.072 0.243652H146.25V6.06564H152.072V0.243652Z" fill="black"/>
<path d="M140.428 23.5259H146.25V17.7067V11.8848H140.428V17.7067V23.5259Z" fill="black"/>
<path d="M70.581 23.5259H64.759V29.3479H70.581V23.5259Z" fill="black"/>
<path d="M93.8632 23.5259H88.0413V29.3479H93.8632V23.5259Z" fill="black"/>
<path d="M64.759 29.3479H58.937V35.1699H64.759V29.3479Z" fill="black"/>
<path d="M117.145 29.3479H111.323V35.1699H117.145V29.3479Z" fill="black"/>
<path d="M58.9399 35.167H53.1179V40.989H58.9399V35.167Z" fill="black"/>
<path d="M122.967 35.167H117.146V40.989H122.967V35.167Z" fill="black"/>
<path d="M76.4001 40.989V35.167V29.3479H70.5781V35.167V40.989V46.811H76.4001V40.989Z" fill="black"/>
<path d="M88.0412 40.989V35.167V29.3479H82.2192V35.167V40.989V46.811H88.0412V40.989Z" fill="black"/>
<path d="M117.145 40.989H111.323V46.811V52.6301H117.145V46.811V40.989Z" fill="black"/>
<path d="M47.2961 52.6301H41.4741V58.4521H47.2961V52.6301Z" fill="black"/>
<path d="M117.146 58.4521V64.2712H122.967V58.4521V52.6301H117.146V58.4521Z" fill="black"/>
<path d="M163.713 52.6302H157.891V46.811H152.072V52.6302H146.25V58.4521H152.072V64.2712H157.891H163.713V58.4521V52.6302Z" fill="black"/>
<path d="M6.55074 58.4519H0.72876V64.2739H6.55074V58.4519Z" fill="black"/>
<path d="M29.833 58.4521V52.6301H24.0139V58.4521V64.2712H29.833V58.4521Z" fill="black"/>
<path d="M146.25 58.4519H140.428V64.2739H146.25V58.4519Z" fill="black"/>
<path d="M175.354 58.4519H169.532V64.2739H175.354V58.4519Z" fill="black"/>
<path d="M24.0139 70.0932V64.2712H18.1919V58.4521V52.6301H12.3699H6.55078V58.4521H12.3699V64.2712V70.0932H18.1919H24.0139Z" fill="black"/>
<path d="M134.609 64.2712H128.787V70.0932H134.609V64.2712Z" fill="black"/>
<path d="M192.817 70.0932V64.2712V58.4521V52.6301H186.995V58.4521H181.176V64.2712V70.0932V75.9152H186.995V70.0932H192.817Z" fill="black"/>
<path d="M12.3728 70.093H6.55078V75.915H12.3728V70.093Z" fill="black"/>
<path d="M157.894 29.3479H152.072V35.1699H157.894V29.3479Z" fill="black"/>
<path d="M152.072 35.167H146.25V40.989H152.072V35.167Z" fill="black"/>
<path d="M29.8359 70.093H24.0139V75.915H29.8359V70.093Z" fill="black"/>
<path d="M70.5781 70.0932V64.2712H64.759V70.0932V75.9152V81.7343H70.5781V75.9152H76.4001V70.0932H70.5781Z" fill="black"/>
<path d="M169.532 75.9152V70.0932V64.2712H163.713V70.0932H157.891V75.9152H163.713H169.532Z" fill="black"/>
<path d="M18.1919 75.915H12.3699V81.737H18.1919V75.915Z" fill="black"/>
<path d="M35.655 81.7343V87.5563H41.4741H47.2961H53.1181H58.9372V81.7343V75.9152H53.1181V81.7343H47.2961H41.4741V75.9152H47.2961V70.0932V64.2712H41.4741H35.655V70.0932V75.9152H29.833V81.7343H35.655Z" fill="black"/>
<path d="M152.072 81.7342H157.891V75.915H152.072H146.25V81.7342V87.5561H140.428V93.3752V99.1972H146.25V93.3752H152.072V87.5561V81.7342Z" fill="black"/>
<path d="M175.354 81.7341H169.532H163.713V87.5561H169.532H175.354V93.3752H181.176H186.995V87.5561V81.7341H181.176H175.354Z" fill="black"/>
<path d="M6.55074 87.5561V81.7341H0.72876V87.5561V93.3752H6.55074V87.5561Z" fill="black"/>
<path d="M70.581 87.5562H64.759V93.3781H70.581V87.5562Z" fill="black"/>
<path d="M105.504 87.5561V93.3752H111.324H117.145H122.967V87.5561V81.7341H128.787H134.609H140.428V75.915V70.093H134.609V75.915H128.787H122.967V70.093H117.145V75.915V81.7341H111.324V87.5561H105.504Z" fill="black"/>
<path d="M157.891 93.3753H152.072V99.1973V105.016H157.891V99.1973H163.713V93.3753V87.5562H157.891V93.3753Z" fill="black"/>
<path d="M64.759 99.1972V93.3752H58.937H53.1179V99.1972H58.937H64.759Z" fill="black"/>
<path d="M76.4001 99.1973V105.019H82.2221V110.841V116.663V122.485H88.0441V128.307H93.8632H99.6852H105.507V122.485V116.663H99.6852V122.485H93.8632V116.663H88.0412V110.841V105.019H93.8632H99.6852V110.841H105.507V116.663H111.329H117.151V122.485H122.973V116.663H128.795V110.841H122.973V105.019H117.151V110.841H111.329V105.019H105.507V99.1973H99.6852H93.8632V93.3753V87.5533V81.7313H99.6852V87.5533H105.507V81.7313H111.329V75.9093V70.0874H105.507V75.9093H99.6852V70.0874H105.507V64.2654H111.329V58.4434H105.507V52.63H99.6852V58.452H93.8632V52.63H99.6852V46.808H105.507V40.986V35.1641V29.3421V23.5201H111.329H117.151H122.973V29.3421H128.795V35.1641H134.608V40.986H128.786V46.808H122.965V52.63H128.786V58.452H134.608V52.63H140.43V46.808V40.986V35.1641V29.3421H134.608V23.5201V17.7067V11.8847H128.786V6.06274H122.965H117.143H111.321V11.8847H117.143V17.7067H111.321H105.499H99.6766V11.8847V6.06274H93.8632V11.8847H88.0412H82.2192V17.7067H76.3973V23.5287H82.2192H88.0412V17.7067H93.8632V23.5287H99.6852V29.3507V35.1727H93.8632V40.9947V46.8166H88.0412V52.6386H82.2192V46.8166H76.3973V52.6386H70.5753V46.8166H64.7533V52.6386H58.9313H53.1179V58.4606H58.9399H64.7619H70.5839H76.4059H82.2278V64.2826V70.1046V75.9266H76.4059V81.7485V87.5705V93.3925H70.5839V99.2145H76.4001V99.1973ZM88.0412 70.0931V64.2711H93.8632V70.0931V75.9151H88.0412V70.0931ZM82.2192 81.7342H88.0412V87.5562H82.2192V81.7342ZM88.0412 93.3753V99.1973H82.2192V93.3753H88.0412Z" fill="black"/>
<path d="M128.787 99.1972H134.609V93.3752H128.787H122.968V99.1972H128.787Z" fill="black"/>
<path d="M6.55074 99.1973H0.72876V105.019H6.55074V99.1973Z" fill="black"/>
<path d="M64.759 105.016H58.937V110.838H64.759V116.66H70.5781H76.4001V110.838H70.5781V105.016V99.1973H64.759V105.016Z" fill="black"/>
<path d="M41.4741 110.838H47.2961H53.1181V105.016V99.1972H47.2961V93.3752H41.4741H35.655H29.833V99.1972H35.655V105.016H41.4741V110.838Z" fill="black"/>
<path d="M134.609 105.016H128.787V110.838H134.609V105.016Z" fill="black"/>
<path d="M157.891 105.016V110.838H152.069V116.66H157.891H163.713V122.482H169.535V128.304V134.126V139.948V145.77H163.713V151.592H157.891V145.77H163.713V139.948H157.891H152.069H146.247V145.77H152.069V151.592H146.247V157.414H140.425V163.236V169.058H146.247V163.236H152.069V169.058H146.247V174.88H152.069V180.702H146.247V186.524H152.069V192.346H157.891V186.524H163.713V180.702H169.535V186.524H163.713V192.346H169.535V198.168H175.354V203.99H169.532V198.168H163.71V203.99H157.888V209.812H163.71H169.532H175.354H181.176H186.998H192.82V203.99H198.642V198.168H192.82H186.998V203.99H181.176V198.168H186.998V192.346H181.176H175.354V186.524V180.702H181.176V169.061H186.998H192.82V163.239H198.642V157.417H192.82H186.998V163.239H181.176V157.417H186.998V151.595H181.176H175.354V145.773V139.951V134.121V128.299H181.176V134.121V139.943H186.998V134.121V128.299H192.82V122.477H186.998H181.176H175.354V116.655H169.532V110.833H175.354V116.655H181.176V110.833H186.998V105.011H181.176V99.1887H175.354H169.532H163.71V105.011H157.891V105.016ZM175.354 174.869H157.891V157.406H175.354V174.869Z" fill="black"/>
<path d="M146.25 110.838H152.072V105.016H146.25H140.428V110.838V116.66H146.25V110.838Z" fill="black"/>
<path d="M192.817 110.838H186.995V116.66H192.817V110.838Z" fill="black"/>
<path d="M41.477 116.66H35.655V122.482H41.477V116.66Z" fill="black"/>
<path d="M140.431 116.66H134.609V122.482H140.431V116.66Z" fill="black"/>
<path d="M117.145 122.479H111.323V128.301H117.145V122.479Z" fill="black"/>
<path d="M146.25 128.301H152.072V122.479H146.25H140.428V128.301V134.121H146.25V128.301Z" fill="black"/>
<path d="M157.894 128.302H152.072V134.124H157.894V128.302Z" fill="black"/>
<path d="M88.0412 134.121H82.2192V139.943H88.0412V134.121Z" fill="black"/>
<path d="M99.6853 134.121H93.8633V139.943H99.6853V134.121Z" fill="black"/>
<path d="M111.326 134.121H105.504V139.943H111.326V134.121Z" fill="black"/>
<path d="M93.8632 139.943H88.0413V145.765H93.8632V139.943Z" fill="black"/>
<path d="M105.504 139.943H99.6824V145.765H105.504V139.943Z" fill="black"/>
<path d="M29.8329 145.764V139.943V134.121V128.301V122.479H24.0138H18.1918V116.66V110.838H24.0138V116.66H29.8329H35.6549V110.838V105.016H29.8329H24.0138V99.1972V93.3752V87.5561V81.7341H18.1918V87.5561V93.3752V99.1972V105.016H12.3699H6.55074V110.838H12.3699V116.66H6.55074V110.838H0.72876V116.66V122.479H6.55074V128.301H0.72876V134.121V139.943V145.764V151.584V157.406H6.55074H12.3699H18.1918V151.584H12.3699V145.764H6.55074V139.943V134.121H12.3699H18.1918V128.301H24.0138V134.121V139.943V145.764H18.1918V151.584H24.0138H29.8329V157.406H35.6549V151.584H41.474V145.764H35.6549H29.8329Z" fill="black"/>
<path d="M88.0414 151.584V145.765H82.2194V139.943H76.4003V145.765H70.5783V139.943H76.4003V134.121V128.301V122.479H70.5783H64.7592V128.301H70.5783V134.121H64.7592H58.9372H53.1181H47.2961V128.301H53.1181H58.9372V122.479H64.7592V116.66H58.9372V110.838H53.1181V116.66V122.479H47.2961H41.4741V128.301V134.121H35.655V139.943H41.4741V145.765H47.2961V139.943H53.1181V145.765H58.9372V139.943H64.7592V145.765V151.584H58.9372H53.1181V145.765H47.2961V151.584V157.406H53.1181H58.9372V163.225H53.1181V169.047H58.9372V174.869H64.7592V169.047V163.225V157.406H70.5783V151.584H76.4003V157.406H82.2194V151.584H88.0414Z" fill="black"/>
<path d="M122.967 151.584H128.787V145.765H134.609H140.428V139.943V134.121H134.609V139.943H128.787H122.967V134.121H117.146V139.943V145.765H122.967V151.584Z" fill="black"/>
<path d="M146.25 145.765H140.428V151.587H146.25V145.765Z" fill="black"/>
<path d="M117.145 151.584V145.765H111.323V151.584V157.406H117.145V151.584Z" fill="black"/>
<path d="M140.431 151.584H134.609V157.406H140.431V151.584Z" fill="black"/>
<path d="M128.787 163.225H134.609V157.406H128.787H122.967H117.146V163.225H122.967H128.787Z" fill="black"/>
<path d="M76.4001 163.225H70.5781V169.047H76.4001H82.2192V163.225H76.4001Z" fill="black"/>
<path d="M169.535 163.225H163.713V169.047H169.535V163.225Z" fill="black"/>
<path d="M88.0412 169.047H82.2192V174.869H88.0412V169.047Z" fill="black"/>
<path d="M192.817 174.869H186.995V180.691H192.817V174.869Z" fill="black"/>
<path d="M58.9399 180.688H53.1179V186.51H58.9399V180.688Z" fill="black"/>
<path d="M82.2193 180.688V174.869H76.4001V180.688V186.51V192.329H82.2193V186.51V180.688Z" fill="black"/>
<path d="M140.431 180.688H134.609V186.51H140.431V180.688Z" fill="black"/>
<path d="M70.581 186.51H64.759V192.332H70.581V186.51Z" fill="black"/>
<path d="M93.8632 186.51H88.0413V192.332H93.8632V186.51Z" fill="black"/>
<path d="M64.759 192.329H58.937H53.1179V198.151V203.973H58.937V198.151H64.759V192.329Z" fill="black"/>
<path d="M88.0412 192.329H82.2192V198.151H88.0412V192.329Z" fill="black"/>
<path d="M122.967 192.329H128.789V186.507H122.967H117.145V192.329V198.151H111.323V192.329H105.501V186.507H111.323H117.145V180.685H122.967H128.789H134.608V174.863H128.786H122.965H117.143V169.041V163.219H111.321V157.397H105.499H99.6766V151.575H93.8632H88.0412V157.397H82.2192V163.219H88.0412H93.8632V169.041V174.863V180.685V186.507H99.6852V192.329H93.8632V198.151V203.973H99.6852V198.151H105.507V203.973H111.329H117.151H122.973V198.151V192.329H122.967ZM99.6823 174.869H105.504V169.047H99.6823V163.225H105.504V169.047H111.326V174.869V180.691H105.504H99.6823V174.869Z" fill="black"/>
<path d="M76.4001 198.151H70.5781V203.973H76.4001V198.151Z" fill="black"/>
<path d="M70.581 203.973H64.759V209.795H70.581V203.973Z" fill="black"/>
<path d="M82.2193 203.973H76.4001V209.792H82.2193H88.0412H93.8632V203.973H88.0412H82.2193Z" fill="black"/>
<path d="M105.504 203.973H99.6824V209.795H105.504V203.973Z" fill="black"/>
<path d="M198.636 134.121H192.817V139.943V145.765H198.636V139.943V134.121Z" fill="black"/>
<path d="M198.636 116.66H192.817V122.479H198.636H204.458V128.301H210.277V122.479V116.66V110.838H204.458V116.66H198.636Z" fill="black"/>
<path d="M204.458 110.838V105.016H198.636V99.1973H192.817V105.016V110.838H198.636H204.458Z" fill="black"/>
<path d="M198.636 75.915H192.817H186.995V81.7342H192.817V87.5561V93.3752H198.636V87.5561H204.458V81.7342H210.277V75.915H204.458H198.636Z" fill="black"/>
<path d="M204.458 145.765H198.636V151.584H204.458V157.406V163.225H210.277V157.406V151.584V145.765V139.943H204.458V145.765Z" fill="black"/>
<path d="M146.25 186.51H140.428V192.332H146.25V186.51Z" fill="black"/>
<path d="M163.713 192.329H157.891V198.151H163.713V192.329Z" fill="black"/>
<path d="M152.072 198.151V192.329H146.25V198.151H140.428V192.329H134.609V198.151H128.787V203.973H122.968V209.792H128.787H134.609V203.973H140.428V209.792H146.25V203.973H152.072H157.891V198.151H152.072Z" fill="black"/>
<path d="M198.639 180.688H192.817V186.51H198.639V180.688Z" fill="black"/>
<path d="M204.458 186.51H198.636V192.329H204.458V198.151V203.973H210.277V198.151V192.329V186.51V180.688H204.458V186.51Z" fill="black"/>
<path d="M47.296 0.243652H0.72876V46.8109H47.296V0.243652V0.243652ZM41.474 40.9889H6.55074V6.06277H41.4769V40.9889H41.474Z" fill="black"/>
<path d="M35.655 11.8848H12.3728V35.167H35.655V11.8848Z" fill="black"/>
<path d="M0.72876 211.02H47.296V164.453H0.72876V211.02ZM6.55074 170.272H41.4769V205.198H6.55074V170.272Z" fill="black"/>
<path d="M35.655 176.094H12.3728V199.376H35.655V176.094Z" fill="black"/>
<path d="M163.713 0.243652V46.8109H210.28V0.243652H163.713ZM204.458 40.9889H169.532V6.06277H204.458V40.9889V40.9889Z" fill="black"/>
<path d="M198.636 11.8848H175.354V35.167H198.636V11.8848Z" fill="black"/>
</svg>
